<?xml version="1.0" encoding="utf-8"?>
<!-- Generator: Adobe Illustrator 23.1.1, SVG Export Plug-In . SVG Version: 6.00 Build 0)  -->
<svg version="1.1" id="Layer_1" xmlns="http://www.w3.org/2000/svg" xmlns:xlink="http://www.w3.org/1999/xlink" x="0px" y="0px"
	 viewBox="0 0 769 322" style="enable-background:new 0 0 769 322;" xml:space="preserve">
<style type="text/css">
	.st0{fill:#FFFFFF;}
</style>
<g>
	<g>
		<path class="st0" d="M16.5,61.2l0.8-5.4c0.3-2.5,0.5-5,0.6-7.3s0.2-4.4,0.2-6.2s0-3.2,0-4.3s0.1-1.7,0.2-1.7
			c0.3-0.1,1.5-0.3,3.6-0.4c2.1-0.2,4.7-0.3,8-0.3c0.6,0,1.5,0,2.8,0s2.7,0,4.2,0s3,0,4.5,0s2.8,0,3.8,0s1.9,0,2.8,0s1.8,0,2.8,0
			s2.3,0,3.8,0s3.4,0,5.8,0h0.1c3.3,0,5.9,0.1,8,0.2s3.2,0.3,3.5,0.5c0.1,0.1,0.2,0.6,0.2,1.7c0,1.1,0,2.5,0.1,4.3
			c0,1.8,0.1,3.9,0.2,6.2s0.3,4.8,0.7,7.3l0.7,5.3c0,0.1,0,0.2,0,0.2c0,0.2-0.1,0.3-0.3,0.3c-0.3,0-0.5-0.2-0.6-0.5l-0.9-5.3
			c-0.5-3.1-1.1-5.8-1.8-8.2c-0.7-2.4-1.7-4.4-2.9-6.1s-2.7-2.9-4.5-3.8c-1.8-0.9-3.9-1.3-6.4-1.3H49v41.1c0,5.8,0,10.3,0.1,13.5
			s0.3,5.5,0.6,7c0.3,1.5,0.9,2.4,1.5,2.7s1.6,0.4,2.7,0.4h1.7c0.4,0,0.6,0.1,0.6,0.4s-0.2,0.4-0.6,0.4c-0.7,0-1.6,0-2.6,0
			s-2.1-0.1-3.1-0.1s-2-0.1-2.9-0.1s-1.5,0-1.8,0c-0.4,0-1,0-1.9,0s-1.9,0.1-2.9,0.1s-2.1,0.1-3.2,0.1s-1.9,0-2.5,0
			c-0.4,0-0.6-0.1-0.6-0.4s0.2-0.4,0.6-0.4h1.7c1.1,0,2.1-0.1,2.7-0.4s1.2-1.2,1.6-2.7s0.6-3.9,0.7-7c0.1-3.2,0.1-7.7,0.1-13.5V36.4
			c-1.3,0.1-2.7,0.1-4.1,0.1s-2.6,0-3.7,0c-2.5,0-4.7,0.4-6.5,1.3c-1.8,0.8-3.3,2.1-4.5,3.7c-1.2,1.6-2.2,3.7-2.9,6.1
			C19,50,18.4,52.7,18,55.8l-0.7,5.4c-0.1,0.3-0.3,0.5-0.6,0.5c-0.2,0-0.3-0.1-0.3-0.3C16.5,61.4,16.5,61.3,16.5,61.2z"/>
		<path class="st0" d="M76.2,30c0-0.3,0.2-0.4,0.6-0.5c2.4-0.4,4.5-1,6.3-1.8s3.5-1.6,5.1-2.5c0.1-0.1,0.2-0.1,0.3-0.1
			c0.1,0,0.3,0,0.6,0.1c0.5,0.2,0.8,0.4,0.8,0.6v38.1c2.4-3.2,5-5.7,7.7-7.4c2.8-1.8,6-2.7,9.5-2.7c2.1,0,4.1,0.3,6,0.9
			c1.8,0.6,3.4,1.6,4.8,3.1s2.5,3.5,3.3,5.9s1.2,5.5,1.2,9.2v24.3c0,1.8,0.3,2.9,1,3.3c0.6,0.4,1.6,0.6,3,0.6c0.2,0,0.4,0,0.6,0
			c0.4,0,0.6,0.1,0.6,0.4s-0.2,0.4-0.6,0.4c-0.2,0-0.7,0-1.4,0c-0.8,0-1.6,0-2.5,0s-1.8,0-2.7,0c-0.8,0-1.4,0-1.8,0s-0.9,0-1.5,0
			s-1.3,0-2.1,0c-0.8,0-1.6,0-2.4,0s-1.6,0-2.3,0c-0.4,0-0.6-0.1-0.6-0.4s0.2-0.4,0.6-0.4c1.1,0,2-0.1,2.6-0.2
			c0.7-0.1,1.2-0.5,1.5-1.2c0.4-0.7,0.6-1.7,0.7-3c0.1-1.4,0.2-3.3,0.2-5.8V72c0-2.9-0.3-5.3-0.9-7.3s-1.5-3.6-2.6-4.8
			s-2.3-2.1-3.6-2.6c-1.4-0.5-2.8-0.8-4.2-0.8c-3,0-5.5,0.7-7.6,2s-4.3,3.5-6.5,6.4v36.3h5.8c0.4,0,0.6,0.1,0.6,0.4
			s-0.2,0.4-0.6,0.4c-0.2,0-0.6,0-1.4,0c-0.7,0-1.5,0-2.4,0s-1.7,0-2.5,0s-1.4,0-1.8,0s-0.9,0-1.7,0c-0.7,0-1.5,0-2.4,0
			s-1.8,0-2.6,0c-0.9,0-1.7,0-2.4,0c-0.4,0-0.6-0.1-0.6-0.4s0.2-0.4,0.6-0.4c1,0,1.8-0.1,2.4-0.3c0.6-0.2,1-0.7,1.3-1.4
			c0.3-0.7,0.4-1.8,0.5-3.1c0.1-1.4,0.1-3.2,0.1-5.5V37.8c0-2-0.1-3.6-0.3-4.7c-0.2-1.1-0.5-1.9-1-2.4S80.4,30,79.7,30
			c-0.8,0-1.7,0.1-2.9,0.3C76.4,30.4,76.2,30.3,76.2,30z"/>
		<path class="st0" d="M132.1,80.3c0-3.5,0.8-6.9,2.3-10.1c1.5-3.2,3.5-6,6-8.4s5.3-4.3,8.4-5.7s6.3-2.1,9.6-2.1
			c3.4,0,6.2,0.5,8.4,1.4c2.2,0.9,3.9,2,5.1,3.3s2,2.7,2.4,4.2c0.3,1.1,0.5,2.1,0.5,3c0,0.3,0,0.5,0,0.8c-0.1,0.8-0.5,1.6-1,2.1
			c-0.5,0.6-1.5,0.8-3,0.8h-32.3c-0.5,2.3-0.7,4.8-0.7,7.3c0,2.9,0.6,5.6,1.8,8.1c1.2,2.5,2.8,4.7,4.8,6.6s4.5,3.3,7.2,4.4
			c2.8,1.1,5.8,1.6,9,1.6c2.9,0,5.5-0.4,7.8-1.3s4.5-2.1,6.4-3.7s3.7-3.5,5.2-5.7s3-4.8,4.3-7.6c0.2-0.6,0.5-0.8,0.7-0.7
			c0.1,0,0.2,0.1,0.1,0.3c0,0.2-0.1,0.4-0.2,0.6c-1.3,2.9-2.8,5.8-4.7,8.6c-1.9,2.8-4,5.4-6.5,7.6s-5.2,4-8.2,5.4s-6.3,2.1-9.9,2.1
			s-6.9-0.6-9.8-1.7s-5.4-2.7-7.5-4.7s-3.7-4.4-4.8-7.2C132.7,86.6,132.1,83.6,132.1,80.3z M138.7,68.7c2.6,0,5.1,0,7.3,0
			c2.2,0,4.2-0.1,6-0.1c1.8-0.1,3.6-0.1,5.2-0.1s3.2,0,4.7,0c0.7,0,1.5-0.1,2.3-0.3s1.3-0.4,1.5-0.5c0.6-0.6,0.8-1.6,0.8-3
			c0-0.9-0.2-1.8-0.7-2.8c-0.4-1-1.1-1.9-2-2.8c-0.9-0.9-2-1.6-3.4-2.1s-2.9-0.8-4.8-0.8c-4.1,0-7.6,1.1-10.6,3.2
			C142.1,61.3,140,64.4,138.7,68.7z"/>
	</g>
	<g>
		<path class="st0" d="M203.8,26.6c0-0.5,0.3-0.7,1-0.7c1.1,0,2.7,0,4.7,0.1s4,0.1,6,0.2c2,0.1,3.8,0.1,5.4,0.2
			c1.6,0.1,2.8,0.1,3.5,0.1c0.6,0,2.4,0,5.4-0.1s6.4-0.1,10-0.2c3.6-0.1,7-0.1,10.1-0.2c3.1-0.1,5.1-0.1,5.9-0.1
			c7.2,0,13.6,0.7,19.3,2.2s10.6,3.6,14.6,6.5c4.1,2.9,7.2,6.4,9.4,10.6c2.2,4.2,3.3,9,3.3,14.4S301.3,70,299,74.5
			c-2.2,4.5-5.4,8.3-9.4,11.5s-8.8,5.7-14.4,7.4c-5.6,1.8-11.7,2.7-18.4,2.7c-4.5-0.1-8.9-0.2-13.1-0.2c-4.3,0-8.6,0-13,0v6.3
			c0,10.7,0.1,19.1,0.4,25s0.8,10.3,1.4,13.1c0.7,2.8,1.5,4.5,2.6,5.1s2.4,0.9,3.9,0.9h9.1c0.7,0,1,0.3,1,0.8s-0.3,0.8-1,0.8
			c-1.3,0-3.1,0-5.2-0.1s-4.3-0.1-6.5-0.1s-4.2,0-6-0.1s-3.1-0.1-3.8-0.1c-0.7,0-2.1,0-4.2,0.1s-4.4,0.1-6.8,0.1s-4.6,0-6.7,0.1
			s-3.3,0.1-3.6,0.1c-0.7,0-1-0.3-1-0.8s0.3-0.8,1-0.8c4.2,0,7-0.1,8.2-0.3c1.2-0.2,1.2-0.2-0.1-0.1c1.3-1.3,2.2-3.1,2.6-5.3
			c0.4-2.2,0.7-5.7,0.9-10.5c0.1-2.5,0.2-5.3,0.3-8.4c0.1-3.1,0.1-6.4,0.2-9.6c0.1-3.3,0.1-6.5,0.1-9.5c0-3.1,0-5.6,0-7.5V71.6
			c0-10.8-0.1-19.2-0.3-25.1c-0.2-6-0.6-10.3-1.2-13.2c-0.6-2.8-1.6-4.5-2.9-5s-3-0.8-5.2-0.8h-3.2
			C204.1,27.3,203.8,27.1,203.8,26.6z M230.8,94H253c11.1,0,19.5-3.1,25.4-9.3c5.9-6.2,8.8-14.6,8.8-25.3c0-21.3-11.3-32-34-32
			h-15.5c-1.7,0-3,0.2-3.9,0.6c-0.9,0.4-1.6,1.4-2,3s-0.7,4.3-0.8,7.8c-0.1,3.6-0.2,8.6-0.2,15V94z"/>
		<path class="st0" d="M315.5,107.4c0-6.6,1.4-12.9,4.2-18.9s6.5-11.2,11.1-15.7s9.8-8.1,15.6-10.7c5.8-2.6,11.8-4,18-4
			c6.4,0,11.6,0.8,15.7,2.5c4.1,1.7,7.3,3.7,9.6,6.2c2.3,2.4,3.8,5,4.6,7.8c0.6,2.1,0.9,4,0.9,5.6c0,0.5,0,1-0.1,1.5
			c-0.2,1.6-0.8,2.9-1.8,3.9c-1,1.1-2.9,1.6-5.5,1.6h-60.1c-0.9,4.4-1.4,8.9-1.4,13.6c0,5.4,1.1,10.4,3.3,15.1s5.2,8.8,9,12.2
			c3.8,3.5,8.3,6.2,13.5,8.2s10.8,3,16.7,3c5.4,0,10.3-0.8,14.6-2.4c4.4-1.6,8.3-3.9,11.9-6.9c3.6-3,6.8-6.5,9.7-10.7
			s5.5-8.9,8-14.2c0.5-1,0.9-1.5,1.4-1.3c0.2,0.1,0.3,0.2,0.3,0.5s-0.1,0.7-0.3,1.1c-2.3,5.4-5.3,10.7-8.7,16
			c-3.5,5.3-7.5,10-12.1,14.1s-9.7,7.4-15.2,10c-5.6,2.6-11.7,3.9-18.4,3.9s-12.8-1-18.3-3.1s-10.1-5-14-8.8s-6.8-8.2-8.9-13.4
			C316.5,119.1,315.5,113.4,315.5,107.4z M327.7,85.7c4.9,0,9.4,0,13.5-0.1s7.8-0.1,11.3-0.3c3.4-0.1,6.6-0.2,9.7-0.3
			c3.1-0.1,6-0.1,8.8-0.1c1.3,0,2.8-0.2,4.3-0.6c1.6-0.4,2.5-0.7,2.7-1c1-1.1,1.5-3,1.5-5.5c0-1.6-0.4-3.4-1.2-5.2
			c-0.8-1.8-2.1-3.6-3.8-5.2c-1.7-1.6-3.8-2.9-6.3-3.9s-5.5-1.5-8.9-1.5c-7.6,0-14.2,2-19.8,5.9C334.1,71.9,330.1,77.8,327.7,85.7z"
			/>
		<path class="st0" d="M403.1,147.1c0-0.5,0.3-0.8,1-0.8c2.1,0,3.7-0.2,5-0.5s2.2-1.1,2.9-2.4s1.2-3.2,1.4-5.8
			c0.2-2.6,0.3-6.2,0.3-10.7V81.5c0-2.6-0.9-5-2.6-7.2c-1.7-2.2-3.6-4.3-5.6-6.2c-0.5-0.5-0.5-0.8,0-1c1.7-0.6,3.7-1.6,6.2-3
			s4.5-2.9,6.1-4.4c0.2-0.2,0.6-0.2,1.1,0.2c1.6,1.4,3.2,3.6,4.8,6.6s2.6,6.2,2.9,9.5c1-3.9,2.6-6.9,4.8-9.2
			c2.2-2.2,4.4-4.1,6.8-5.8c3-1.9,6.2-2.9,9.7-2.9c0.1,0,0.2,0,0.3,0c2.1,0,4,0.2,5.5,0.7c1.6,0.5,2.4,1.3,2.4,2.4
			c0,0.7-0.2,1.6-0.5,2.7c-0.3,1.1-0.9,2.1-1.6,3c-0.7,0.9-1.6,1.7-2.7,2.4c-1.1,0.7-2.4,1.1-3.9,1.1H441c-3.2,0-5.6,0.2-7.5,0.5
			c-1.8,0.3-3.3,1.1-4.3,2.3c-1,1.2-1.6,2.9-1.8,5.1s-0.3,5.2-0.3,8.9v59h10.5c0.7,0,1,0.3,1,0.8s-0.3,0.8-1,0.8
			c-0.3,0-1.2,0-2.6-0.1c-1.4-0.1-2.9-0.1-4.6-0.1c-1.7,0-3.3,0-4.9-0.1c-1.6-0.1-2.7-0.1-3.4-0.1s-1.8,0-3.3,0.1s-3.1,0.1-4.9,0.1
			c-1.7,0-3.4,0-5.2,0.1c-1.7,0.1-3.2,0.1-4.5,0.1C403.4,147.8,403.1,147.6,403.1,147.1z"/>
		<path class="st0" d="M459.8,147.1c0-0.5,0.3-0.8,1-0.8c2.5,0,4.4-0.2,5.8-0.6c1.4-0.4,2.4-1.3,3.1-2.5c0.7-1.2,1-3,1.2-5.4
			c0.1-2.3,0.2-5.4,0.2-9.3c-0.1-10.5-0.2-20-0.2-28.4V71.2v-1.7h-7.2c-1.6,0-2.5-0.4-2.5-1.1l6.1-8.4h4.5
			c1.4-6.8,3.8-13.2,7.2-19.2c3.3-6,7.3-11.2,11.8-15.7s9.3-8.1,14.4-10.7c5.1-2.6,10.1-4,14.9-4c2.2,0,4.4,0.1,6.6,0.3
			c2.2,0.2,4.1,0.5,5.7,0.9c1.6,0.4,3,0.9,4,1.5c1.1,0.6,1.6,1.2,1.6,1.8c0,0.7-0.2,1.6-0.7,2.6c-0.5,1.1-1.1,2.1-1.9,3
			c-0.8,0.9-1.8,1.7-3,2.4c-1.2,0.6-2.5,0.9-3.9,0.9c-2.9,0-6.5-0.6-10.9-1.7s-9.2-1.7-14.5-1.7c-6,0-10.6,3.1-14,9.3
			S484,46,483.9,59.8c2.7,0,5.5,0,8.3-0.1c2.9-0.1,5.9-0.1,9-0.1h1.7c2.6,0,4.2,0,5,0s1.2,0.1,1.2,0.3c0,0.6-0.9,1.8-2.7,3.7
			s-3.6,3.8-5.5,5.8c-2.5,0-5.2,0-8.1-0.1c-2.9-0.1-5.9-0.1-8.9-0.1v35.5c0,7.4,0.1,15.2,0.2,23.5c0,4.4,0.1,7.7,0.3,10.1
			s0.7,4.1,1.5,5.2s1.9,1.8,3.4,2.1s3.5,0.4,6.1,0.4c0.7,0,1,0.3,1.1,0.8c0,0.5-0.3,0.8-1.1,0.8c-1.3,0-2.9,0-4.6-0.1
			c-1.7-0.1-3.5-0.1-5.2-0.1s-3.2,0-4.7-0.1c-1.4-0.1-2.5-0.1-3.2-0.1s-1.7,0-3.1,0.1c-1.4,0.1-2.9,0.1-4.5,0.1s-3.3,0-5,0.1
			s-3.2,0.1-4.5,0.1C460.2,147.8,459.8,147.6,459.8,147.1z"/>
		<path class="st0" d="M515.8,107.4c0-6.6,1.4-12.9,4.2-18.9s6.5-11.2,11.1-15.7s9.8-8.1,15.6-10.7c5.8-2.6,11.8-4,18-4
			c6.4,0,11.6,0.8,15.7,2.5c4.1,1.7,7.3,3.7,9.6,6.2c2.3,2.4,3.8,5,4.6,7.8c0.6,2.1,0.9,4,0.9,5.6c0,0.5,0,1-0.1,1.5
			c-0.2,1.6-0.8,2.9-1.8,3.9c-1,1.1-2.9,1.6-5.5,1.6H528c-0.9,4.4-1.4,8.9-1.4,13.6c0,5.4,1.1,10.4,3.3,15.1s5.2,8.8,9,12.2
			c3.8,3.5,8.3,6.2,13.5,8.2s10.8,3,16.7,3c5.4,0,10.3-0.8,14.6-2.4c4.4-1.6,8.3-3.9,11.9-6.9c3.6-3,6.8-6.5,9.7-10.7
			s5.5-8.9,8-14.2c0.5-1,0.9-1.5,1.4-1.3c0.2,0.1,0.3,0.2,0.3,0.5s-0.1,0.7-0.3,1.1c-2.3,5.4-5.3,10.7-8.7,16
			c-3.5,5.3-7.5,10-12.1,14.1s-9.7,7.4-15.2,10c-5.6,2.6-11.7,3.9-18.4,3.9s-12.8-1-18.3-3.1s-10.1-5-14-8.8s-6.8-8.2-8.8-13.4
			C516.8,119.1,515.8,113.4,515.8,107.4z M528,85.7c4.9,0,9.4,0,13.5-0.1s7.8-0.1,11.3-0.3c3.4-0.1,6.6-0.2,9.7-0.3
			c3.1-0.1,6-0.1,8.8-0.1c1.3,0,2.8-0.2,4.3-0.6c1.6-0.4,2.5-0.7,2.7-1c1-1.1,1.5-3,1.5-5.5c0-1.6-0.4-3.4-1.2-5.2
			c-0.8-1.8-2.1-3.6-3.8-5.2c-1.7-1.6-3.8-2.9-6.3-3.9S563,62,559.6,62c-7.6,0-14.2,2-19.8,5.9C534.4,71.9,530.4,77.8,528,85.7z"/>
		<path class="st0" d="M607,107.4c0-6.4,1.4-12.5,4.2-18.4s6.5-11.1,11.2-15.7c4.6-4.6,10-8.2,16-11c6-2.7,12.3-4.1,18.7-4.1
			c4.4,0,8.3,0.4,11.9,1.2c3.6,0.8,6.7,1.8,9.2,3.1c2.6,1.2,4.6,2.6,6.1,4.2c1.5,1.6,2.2,3.1,2.2,4.7c0,1.5-0.7,3.1-2.2,4.8
			c-1.5,1.6-3.6,2.4-6.4,2.4c-1.9,0-3.6-0.8-5.1-2.5s-3.3-3.6-5.3-5.7s-4.4-4-7.2-5.7s-6.3-2.5-10.6-2.5c-4.4,0-8.4,0.8-12.2,2.4
			c-3.8,1.6-7.1,4.1-9.9,7.3c-2.8,3.2-5.1,7.2-6.7,11.8c-1.6,4.6-2.4,9.9-2.4,15.9c0,5.8,1,11.2,3,16.1s4.8,9.1,8.2,12.8
			c3.5,3.6,7.7,6.5,12.6,8.5c4.9,2,10.4,3,16.4,3c8.3,0,15.4-2,21.3-6c5.9-4,11-10,15.5-18.2c0.3-0.7,0.7-0.9,1.2-0.7
			c0.3,0.1,0.4,0.3,0.4,0.6c0,0.2-0.1,0.4-0.3,0.6c-2.5,4.6-5.4,8.9-8.9,13.1c-3.5,4.1-7.3,7.7-11.4,10.7c-4.2,3-8.5,5.3-13.2,7.1
			s-9.4,2.6-14.2,2.6c-6.2,0-11.9-1-17.1-3.1c-5.1-2-9.6-4.9-13.4-8.7c-3.8-3.8-6.7-8.2-8.7-13.4C608,119.3,607,113.6,607,107.4z"/>
		<path class="st0" d="M697.7,69.1c0-0.2,0.1-0.3,0.3-0.5l22.5-25.9c0.2-0.2,0.4-0.3,0.5-0.3s0.2,0.2,0.2,0.5V60c1.3,0,3,0,5.1,0
			s4.3,0,6.6,0s4.5,0,6.7-0.1s4-0.1,5.3-0.1c2.9-0.1,4.7-0.1,5.3-0.1c0.6,0.1,0.9,0.2,0.9,0.4c0,0.6-0.8,1.7-2.3,3.4
			s-3.6,3.7-6.3,6.2c-0.3,0-1.4,0-3.2,0s-3.8,0-6-0.1s-4.5-0.1-6.8-0.1s-4.2,0-5.7,0v55.2c0,12.9,3.8,19.3,11.4,19.3
			c3.5,0,6.9-1.6,10.1-4.7c3.2-3.1,5.9-7.7,7.9-13.6c0.3-0.7,0.8-0.9,1.6-0.5c0.6,0.2,0.8,0.5,0.8,0.9c0,0.2-0.1,0.4-0.2,0.6
			c-1.4,2.8-3.1,5.6-5,8.4s-4.1,5.2-6.5,7.3c-2.4,2.1-5,3.8-7.7,5.1s-5.6,1.9-8.7,1.9c-6,0-10.3-1.9-12.9-5.8c-2.7-3.9-4-10-4-18.4
			V69.4H698C697.8,69.6,697.7,69.4,697.7,69.1z"/>
	</g>
	<g>
		<path class="st0" d="M209.2,219.6c0-5.3,1.1-10,3.3-14.1c2.2-4.1,5.1-7.6,8.9-10.5s8.1-5.1,13.1-6.7s10.3-2.3,15.9-2.3
			c8.8,0,16.2,0.5,22,1.4c5.9,0.9,11.3,2,16.4,3.2c0.6,0.2,1,0.4,1.3,0.6s0.5,0.6,0.6,1.3c0.1,0.9,0.1,2.3,0,4.3
			c-0.1,1.9-0.3,4.6-0.4,8c-0.2,3.4-0.3,7.6-0.4,12.7c-0.1,5-0.2,11-0.2,18c0,1.1-0.3,1.7-0.9,1.7c-0.6,0-0.9-0.6-0.9-1.7
			c0-0.8,0-1.6,0-2.5c0-5.9-0.3-11.3-1-16.4c-0.8-5.8-2.5-10.9-5.2-15.1c-2.7-4.3-6.5-7.6-11.5-10s-11.6-3.6-19.8-3.6
			c-5.4,0-10,0.6-13.8,1.8c-3.8,1.2-6.9,2.8-9.3,4.9s-4.2,4.6-5.3,7.5c-1.1,2.9-1.7,6-1.7,9.2c0,4.2,1,7.9,3.1,11s4.8,5.9,8.2,8.3
			c3.4,2.5,7.3,4.7,11.6,6.7c4.3,2,8.8,4,13.4,5.8c4.6,1.9,9.1,3.9,13.4,5.9c4.4,2,8.3,4.4,11.8,7.1s6.3,5.8,8.4,9.3
			c2.1,3.5,3.2,7.6,3.2,12.3c0,5-1,9.6-3,13.8c-2,4.2-4.8,7.7-8.3,10.6s-7.6,5.2-12.2,6.8c-4.6,1.6-9.6,2.4-14.8,2.4
			c-4.8,0-9-0.1-12.7-0.3c-3.6-0.2-7-0.6-10.2-1s-6.2-1-9.1-1.6s-5.9-1.4-9.1-2.1c-0.8-0.2-1.3-0.4-1.5-0.6s-0.3-0.5-0.3-1.1
			c0-2,0-5.1,0-9.3s0-8.5-0.1-13.1s-0.1-9-0.1-13.2s0-7.4,0-9.5c0-1.3,0.3-2,0.9-1.9c0.6,0,0.9,0.7,0.9,1.9c0,8.2,0.8,15.4,2.3,21.7
			c1.5,6.3,4,11.6,7.2,15.8c3.3,4.2,7.5,7.4,12.8,9.6c5.2,2.2,11.5,3.3,18.8,3.3c9.6,0,16.7-2.2,21.1-6.7c4.4-4.5,6.7-10.1,6.7-17
			c0-4.4-1-8.1-3-11.2s-4.7-5.9-8-8.4s-7.1-4.7-11.4-6.6s-8.7-3.8-13.1-5.7c-4.7-1.9-9.3-3.9-13.9-6s-8.6-4.5-12.2-7.2
			s-6.5-5.8-8.6-9.2C210.3,228.3,209.2,224.3,209.2,219.6z"/>
		<path class="st0" d="M296.7,222.5c0-0.5,0.2-0.8,0.7-0.8c0.2,0,1.1,0,2.6,0.1s3.1,0.1,4.9,0.1c1.8,0,3.5,0,5.1,0.1
			s2.7,0.1,3.3,0.1s1.8,0,3.6-0.1s3.8-0.1,6-0.1s4.3,0,6.4-0.1c2.1-0.1,3.6-0.1,4.6-0.1c0.6,0,0.9,0.3,0.9,0.8s-0.3,0.8-0.9,0.8
			c-2.5,0-4.4,0.1-5.8,0.4c-1.4,0.3-2.3,0.9-2.8,2.1c-0.5,1.1-0.4,2.8,0.1,5.1c0.5,2.3,1.5,5.5,3.1,9.8l19.5,53.2l22-51.2
			c0.2-0.9,0.3-1.8,0.3-2.7c0-0.9-0.1-1.9-0.2-3.1c-0.1-0.9-0.3-1.9-0.5-3.1c-0.2-1.1-0.6-2.2-1.2-3.3c-1-2.1-2.4-3.8-4.2-5.1
			c-1.8-1.3-4.1-1.9-7-1.9c-0.6,0-0.9-0.3-1-0.8s0.2-0.8,0.7-0.8c1,0,2.4,0,4,0.1c1.7,0.1,3.4,0.1,5.1,0.1c1.7,0,3.3,0,4.6,0.1
			s2.3,0.1,2.9,0.1c0.6,0,1.5,0,2.9-0.1c1.3-0.1,2.8-0.1,4.5-0.1s3.3,0,4.9-0.1c1.6-0.1,2.8-0.1,3.7-0.1c0.7,0,1.1,0.3,1.2,0.8
			s-0.2,0.8-1,0.8c-2.3,0-4.2,0.1-5.6,0.4c-1.4,0.3-2.3,0.9-2.6,2.1c-0.3,1.1-0.2,2.8,0.5,5.1c0.7,2.3,1.8,5.5,3.4,9.8l21.3,54.2
			l18.8-46.8c1.9-4.6,2.9-8.4,3-11.5c0-0.3,0-0.6,0-0.9c0.1-2.7-0.4-4.9-1.5-6.7c-1.1-1.9-2.8-3.4-4.8-4.3c-2.1-0.9-4.4-1.3-7-1.3
			c-0.6,0-0.9-0.3-0.9-0.8c-0.1-0.5,0.2-0.8,0.8-0.8c1,0,2.5,0,4.3,0.1s3.7,0.1,5.6,0.1s3.6,0,5.1,0.1s2.6,0.1,3.1,0.1
			s1.5,0,3.2-0.1s3.4-0.1,5.2-0.1s3.4,0,4.9-0.1s2.4-0.1,2.8-0.1c0.6,0,0.9,0.3,0.9,0.9c0,0.4-0.3,0.6-0.8,0.6
			c-2.6,0-4.8,0.4-6.8,1.3c-1.9,0.9-3.7,2.4-5.4,4.4s-3.3,4.7-4.9,8c-1.7,3.3-3.4,7.3-5.2,12.1l-24.5,60.9c-0.1,0.2-0.5,0.3-1,0.3
			h-1.8c-0.3,0-0.6-0.1-0.7-0.3l-26.9-68.3l-28.7,68.3c-0.1,0.2-0.3,0.3-0.5,0.3h-2c-0.3,0-0.6-0.1-0.7-0.3L316.7,246
			c-1.8-5-3.4-9.1-4.7-12.1c-1.4-3-2.8-5.3-4.2-6.9s-2.9-2.6-4.5-3s-3.5-0.6-5.7-0.6C297,223.3,296.7,223,296.7,222.5z"/>
		<path class="st0" d="M452.1,269.2c0-6.6,1.4-12.9,4.2-18.9s6.5-11.2,11.1-15.7s9.8-8.1,15.6-10.7s11.8-4,18-4
			c6.4,0,11.6,0.8,15.7,2.5c4.1,1.7,7.3,3.7,9.6,6.2c2.3,2.4,3.8,5,4.6,7.8c0.6,2.1,0.9,4,0.9,5.6c0,0.5,0,1-0.1,1.5
			c-0.2,1.6-0.8,2.9-1.8,3.9c-1,1.1-2.9,1.6-5.5,1.6h-60.1c-0.9,4.4-1.4,8.9-1.4,13.6c0,5.4,1.1,10.4,3.3,15.1s5.2,8.8,9,12.2
			c3.8,3.5,8.3,6.2,13.5,8.2s10.8,3,16.7,3c5.4,0,10.3-0.8,14.6-2.4c4.4-1.6,8.3-3.9,11.9-6.9c3.6-3,6.8-6.5,9.7-10.7
			s5.5-8.9,8-14.2c0.5-1,0.9-1.5,1.4-1.3c0.2,0.1,0.3,0.2,0.3,0.5s-0.1,0.7-0.3,1.1c-2.3,5.4-5.3,10.7-8.7,16
			c-3.5,5.3-7.5,10-12.1,14.1s-9.7,7.4-15.2,10c-5.6,2.6-11.7,3.9-18.4,3.9s-12.8-1-18.3-3.1s-10.1-5-14-8.8s-6.8-8.2-8.8-13.4
			C453.1,280.9,452.1,275.3,452.1,269.2z M464.4,247.6c4.9,0,9.4,0,13.5-0.1s7.8-0.1,11.3-0.3c3.4-0.1,6.6-0.2,9.7-0.3
			c3.1-0.1,6-0.1,8.8-0.1c1.3,0,2.8-0.2,4.3-0.6c1.6-0.4,2.5-0.7,2.7-1c1-1.1,1.5-3,1.5-5.5c0-1.6-0.4-3.4-1.2-5.2
			c-0.8-1.8-2.1-3.6-3.8-5.2s-3.8-2.9-6.3-3.9s-5.5-1.5-8.9-1.5c-7.6,0-14.2,2-19.8,5.9S466.7,239.7,464.4,247.6z"/>
		<path class="st0" d="M542.5,291.9c0-2.9,0.8-5.8,2.3-8.8c1.5-2.9,4.1-5.9,7.6-8.9s8.1-6,13.8-9.1c5.7-3,12.7-6.2,20.9-9.4
			l14.8-5.6c-0.2-5.5-0.7-10.1-1.5-13.8c-0.8-3.7-1.9-6.7-3.3-8.8c-1.5-2.1-3.3-3.7-5.6-4.6c-2.2-0.9-4.9-1.4-8-1.4
			c-4,0-7.2,0.8-9.6,2.3c-2.5,1.5-4.6,3.3-6.2,5.4c-1.7,2.1-3.1,4.2-4.1,6.4s-2.1,4-3.1,5.4c-0.8,1.1-1.8,2-2.9,2.4
			c-1.1,0.5-2.9,0.7-5.3,0.7c-2.3,0-4.1-0.3-5.5-1s-2.1-1.7-2.1-3c0-1,0.5-2.3,1.5-3.9s2.6-3,4.9-4.4c1.8-1.1,4.1-2.4,6.8-3.8
			s5.6-2.7,8.8-3.9c3.1-1.2,6.4-2.2,9.8-3.1c3.4-0.8,6.7-1.2,10-1.2c4.3,0,8.2,0.6,11.8,1.7s6.7,3,9.3,5.6s4.6,5.9,6,10
			c1.4,4,2.2,8.9,2.2,14.6c0,2.9-0.1,6.3-0.3,10.1c-0.2,3.8-0.3,7.5-0.5,11.1s-0.3,7-0.4,10.1c-0.1,3.1-0.2,5.5-0.2,7.3
			c0,5,0.3,8.8,1,11.3s2,3.7,3.9,3.7c0.8,0,1.6-0.4,2.5-1.1s1.8-1.5,2.7-2.4s1.7-1.9,2.5-3s1.4-2.2,1.8-3.1c0.5-0.7,1.1-0.8,1.8-0.3
			c0.4,0.3,0.6,0.6,0.6,0.9s-0.1,0.6-0.3,0.9c-0.7,1-1.8,2.3-3.4,3.9c-1.6,1.6-3.4,3.1-5.4,4.7s-4.1,2.9-6.2,4
			c-2.1,1.1-4.1,1.6-5.8,1.6c-3.1,0-5.5-1.1-7-3.2s-2.3-5.2-2.3-9.2c0-2.3,0-4.9,0.1-7.6s0.2-5,0.3-6.9c-1.2,2-3.1,4.6-5.8,7.6
			c-2.7,3.1-5.8,6.1-9.2,9s-7,5.4-10.7,7.4c-3.7,2.1-7.1,3.1-10.1,3.1c-7.4,0-13.1-1.9-17-5.8C544.4,301.9,542.5,297.3,542.5,291.9z
			 M555.7,286.8c0,2.3,0.6,4.6,1.7,6.7c1.1,2.1,2.6,3.9,4.4,5.5c1.8,1.5,3.8,2.8,6,3.6c2.2,0.9,4.4,1.3,6.5,1.3
			c2.5,0,5.2-0.9,8.2-2.8s5.8-4.1,8.5-6.7s5-5.2,7-7.8c2-2.6,3.1-4.7,3.5-6.1c0.1-1.1,0.3-3.8,0.5-8.1c0.2-4.2,0.3-10,0.3-17.3v-3.7
			l-14.4,6.2c-6.5,2.7-11.8,5.1-15.9,7.3c-4.1,2.2-7.4,4.3-9.7,6.5c-2.3,2.1-4,4.4-4.9,6.9C556.2,280.7,555.7,283.6,555.7,286.8z"/>
		<path class="st0" d="M629,231c0-0.2,0.1-0.3,0.3-0.5l22.5-25.9c0.2-0.2,0.4-0.3,0.5-0.3s0.2,0.2,0.2,0.5v17.1c1.3,0,3,0,5.1,0
			s4.3,0,6.6,0s4.5,0,6.7-0.1s4-0.1,5.3-0.1c2.9-0.1,4.7-0.1,5.3-0.1c0.6,0.1,0.9,0.2,0.9,0.4c0,0.6-0.8,1.7-2.3,3.4
			c-1.5,1.7-3.6,3.7-6.3,6.2c-0.3,0-1.4,0-3.2,0s-3.8,0-6-0.1s-4.5-0.1-6.8-0.1s-4.2,0-5.7,0v55.2c0,12.9,3.8,19.3,11.4,19.3
			c3.5,0,6.9-1.6,10.1-4.7c3.2-3.1,5.9-7.7,7.9-13.6c0.3-0.7,0.8-0.9,1.6-0.5c0.6,0.2,0.8,0.5,0.8,0.9c0,0.2-0.1,0.4-0.2,0.6
			c-1.4,2.8-3.1,5.6-5,8.4s-4.1,5.2-6.5,7.3c-2.4,2.1-5,3.8-7.7,5.1s-5.6,1.9-8.7,1.9c-6,0-10.3-1.9-12.9-5.8c-2.7-3.9-4-10-4-18.4
			v-55.8h-9.6C629.1,231.4,629,231.3,629,231z"/>
	</g>
</g>
</svg>
